# xmcd
#
# Track frame offsets: 
#        150
#        15582
#        32234
#        49273
#        65845
#        82395
#        101742
#        118488
#        134799
#        145150
#        158270
#
# Disc length: 2333 seconds
#
# Revision: 0
# Processed by: cddbd v1.5.2PL0 Copyright (c) Steve Scherf et al.
# Submitted via: ExactAudioCopy v0.99pb4
#
DISCID=a6091b0b
DTITLE=Various Artist - Nova 24h - CD 08 - Il est 7h... excuse nous si on t'a
DTITLE=réveillé, c'est pas cool !
DYEAR=2009
DGENRE=
TTITLE0=Minnie Riperton - Reasons
TTITLE1=Davy Sicard - Iz Ali
TTITLE2=Marcia Aitken - I'm Still In Love With You
TTITLE3=James Yuill - This Sweet Love
TTITLE4=Finley Quaye - Sunday Shining
TTITLE5=Saravah Soul - Nao Posso Te Levar A Serio
TTITLE6=Wallias Band - Muziqawi Silt
TTITLE7=A Tribe Called Quest - Check The Rhime (LP Version)
TTITLE8=Helen Merrill - Why Don't You Do Right
TTITLE9=Tribega - Bridge The Gap
TTITLE10=Collie Buddz - Come Around
EXTD=
EXTT0=
EXTT1=
EXTT2=
EXTT3=
EXTT4=
EXTT5=
EXTT6=
EXTT7=
EXTT8=
EXTT9=
EXTT10=
PLAYORDER=
